dataset
version=1
nRows=19
nColumns=39
inDegrees=no
endheader
time	sternoclavicular_r2	sternoclavicular_r3	unrotscap_r3	unrotscap_r2	acromioclavicular_r2	acromioclavicular_r3	acromioclavicular_r1	unrothum_r1	unrothum_r3	unrothum_r2	elv_angle	shoulder_elv	shoulder1_r2	shoulder_rot	elbow_flexion	pro_sup	deviation	flexion	cmc_abduction	cmc_flexion	mp_flexion	ip_flexion	mcp2_flexion	mcp2_abduction	pm2_flexion	md2_flexion	mcp3_flexion	mcp3_abduction	pm3_flexion	md3_flexion	mcp4_flexion	mcp4_abduction	pm4_flexion	md4_flexion	mcp5_flexion	mcp5_abduction	pm5_flexion	md5_flexion
3.750000	-0.023054	-0.291033	0.124757	0.084277	0.059320	0.124183	-0.068015	-0.037975	0.039093	0.106062	0.089999	0.027437	0.146525	0.146525	1.958078	1.303618	0.000000	0.000000	0.000000	0.000000	0.000000	0.000000	0.000000	0.000000	0.000000	0.000000	0.000000	0.000000	0.000000	0.000000	0.000000	0.000000	0.000000	0.000000	0.000000	0.000000	0.000000	0.000000
3.755000	-0.023057	-0.290436	0.124233	0.084389	0.059521	0.123750	-0.067683	-0.038034	0.039123	0.106317	0.090237	0.027437	0.146525	0.146525	1.947955	1.303917	0.000000	0.000000	0.000000	0.000000	0.000000	0.000000	0.000000	0.000000	0.000000	0.000000	0.000000	0.000000	0.000000	0.000000	0.000000	0.000000	0.000000	0.000000	0.000000	0.000000	0.000000	0.000000
3.760000	-0.023061	-0.289839	0.123704	0.084504	0.059721	0.123331	-0.067334	-0.038055	0.039149	0.106564	0.090474	0.027437	0.146525	0.146525	1.937857	1.304212	0.000000	0.000000	0.000000	0.000000	0.000000	0.000000	0.000000	0.000000	0.000000	0.000000	0.000000	0.000000	0.000000	0.000000	0.000000	0.000000	0.000000	0.000000	0.000000	0.000000	0.000000	0.000000
3.765000	-0.023068	-0.289243	0.123170	0.084621	0.059920	0.122927	-0.066968	-0.038036	0.039172	0.106803	0.090710	0.027437	0.146525	0.146525	1.927793	1.304502	0.000000	0.000000	0.000000	0.000000	0.000000	0.000000	0.000000	0.000000	0.000000	0.000000	0.000000	0.000000	0.000000	0.000000	0.000000	0.000000	0.000000	0.000000	0.000000	0.000000	0.000000	0.000000
3.770000	-0.023077	-0.288650	0.122632	0.084740	0.060119	0.122539	-0.066587	-0.037978	0.039190	0.107033	0.090943	0.027437	0.146525	0.146525	1.917768	1.304788	0.000000	0.000000	0.000000	0.000000	0.000000	0.000000	0.000000	0.000000	0.000000	0.000000	0.000000	0.000000	0.000000	0.000000	0.000000	0.000000	0.000000	0.000000	0.000000	0.000000	0.000000	0.000000
3.775000	-0.023089	-0.288059	0.122091	0.084862	0.060317	0.122166	-0.066191	-0.037881	0.039204	0.107255	0.091174	0.027437	0.146525	0.146525	1.907788	1.305070	0.000000	0.000000	0.000000	0.000000	0.000000	0.000000	0.000000	0.000000	0.000000	0.000000	0.000000	0.000000	0.000000	0.000000	0.000000	0.000000	0.000000	0.000000	0.000000	0.000000	0.000000	0.000000
3.780000	-0.023102	-0.287472	0.121548	0.084986	0.060515	0.121810	-0.065782	-0.037746	0.039212	0.107468	0.091404	0.027437	0.146525	0.146525	1.897860	1.305347	0.000000	0.000000	0.000000	0.000000	0.000000	0.000000	0.000000	0.000000	0.000000	0.000000	0.000000	0.000000	0.000000	0.000000	0.000000	0.000000	0.000000	0.000000	0.000000	0.000000	0.000000	0.000000
3.785000	-0.023119	-0.286889	0.121004	0.085114	0.060711	0.121468	-0.065359	-0.037572	0.039215	0.107674	0.091631	0.027437	0.146525	0.146525	1.887990	1.305620	0.000000	0.000000	0.000000	0.000000	0.000000	0.000000	0.000000	0.000000	0.000000	0.000000	0.000000	0.000000	0.000000	0.000000	0.000000	0.000000	0.000000	0.000000	0.000000	0.000000	0.000000	0.000000
3.790000	-0.023137	-0.286311	0.120460	0.085243	0.060908	0.121143	-0.064925	-0.037360	0.039212	0.107871	0.091856	0.027437	0.146525	0.146525	1.878183	1.305887	0.000000	0.000000	0.000000	0.000000	0.000000	0.000000	0.000000	0.000000	0.000000	0.000000	0.000000	0.000000	0.000000	0.000000	0.000000	0.000000	0.000000	0.000000	0.000000	0.000000	0.000000	0.000000
3.795000	-0.023158	-0.285739	0.119915	0.085376	0.061104	0.120833	-0.064479	-0.037111	0.039202	0.108061	0.092078	0.027437	0.146525	0.146525	1.868444	1.306149	0.000000	0.000000	0.000000	0.000000	0.000000	0.000000	0.000000	0.000000	0.000000	0.000000	0.000000	0.000000	0.000000	0.000000	0.000000	0.000000	0.000000	0.000000	0.000000	0.000000	0.000000	0.000000
3.800000	-0.023181	-0.285173	0.119372	0.085511	0.061299	0.120540	-0.064024	-0.036825	0.039186	0.108242	0.092298	0.027437	0.146525	0.146525	1.858780	1.306406	0.000000	0.000000	0.000000	0.000000	0.000000	0.000000	0.000000	0.000000	0.000000	0.000000	0.000000	0.000000	0.000000	0.000000	0.000000	0.000000	0.000000	0.000000	0.000000	0.000000	0.000000	0.000000
3.805000	-0.023207	-0.284614	0.118829	0.085648	0.061494	0.120261	-0.063559	-0.036502	0.039162	0.108416	0.092515	0.027437	0.146525	0.146525	1.849195	1.306658	0.000000	0.000000	0.000000	0.000000	0.000000	0.000000	0.000000	0.000000	0.000000	0.000000	0.000000	0.000000	0.000000	0.000000	0.000000	0.000000	0.000000	0.000000	0.000000	0.000000	0.000000	0.000000
3.810000	-0.023235	-0.284062	0.118289	0.085788	0.061688	0.119998	-0.063086	-0.036144	0.039131	0.108583	0.092730	0.027437	0.146525	0.146525	1.839694	1.306904	0.000000	0.000000	0.000000	0.000000	0.000000	0.000000	0.000000	0.000000	0.000000	0.000000	0.000000	0.000000	0.000000	0.000000	0.000000	0.000000	0.000000	0.000000	0.000000	0.000000	0.000000	0.000000
3.815000	-0.023265	-0.283517	0.117752	0.085931	0.061882	0.119750	-0.062606	-0.035752	0.039093	0.108742	0.092942	0.027437	0.146525	0.146525	1.830282	1.307144	0.000000	0.000000	0.000000	0.000000	0.000000	0.000000	0.000000	0.000000	0.000000	0.000000	0.000000	0.000000	0.000000	0.000000	0.000000	0.000000	0.000000	0.000000	0.000000	0.000000	0.000000	0.000000
3.820000	-0.023297	-0.282980	0.117217	0.086076	0.062075	0.119517	-0.062119	-0.035325	0.039046	0.108894	0.093152	0.027437	0.146525	0.146525	1.820963	1.307379	0.000000	0.000000	0.000000	0.000000	0.000000	0.000000	0.000000	0.000000	0.000000	0.000000	0.000000	0.000000	0.000000	0.000000	0.000000	0.000000	0.000000	0.000000	0.000000	0.000000	0.000000	0.000000
3.825000	-0.023331	-0.282451	0.116687	0.086224	0.062268	0.119299	-0.061626	-0.034866	0.038992	0.109039	0.093358	0.027437	0.146525	0.146525	1.811741	1.307608	0.000000	0.000000	0.000000	0.000000	0.000000	0.000000	0.000000	0.000000	0.000000	0.000000	0.000000	0.000000	0.000000	0.000000	0.000000	0.000000	0.000000	0.000000	0.000000	0.000000	0.000000	0.000000
3.830000	-0.023368	-0.281931	0.116160	0.086374	0.062460	0.119095	-0.061127	-0.034375	0.038929	0.109177	0.093562	0.027437	0.146525	0.146525	1.802621	1.307831	0.000000	0.000000	0.000000	0.000000	0.000000	0.000000	0.000000	0.000000	0.000000	0.000000	0.000000	0.000000	0.000000	0.000000	0.000000	0.000000	0.000000	0.000000	0.000000	0.000000	0.000000	0.000000
3.835000	-0.023406	-0.281419	0.115637	0.086527	0.062652	0.118904	-0.060625	-0.033852	0.038858	0.109309	0.093763	0.027437	0.146525	0.146525	1.793606	1.308047	0.000000	0.000000	0.000000	0.000000	0.000000	0.000000	0.000000	0.000000	0.000000	0.000000	0.000000	0.000000	0.000000	0.000000	0.000000	0.000000	0.000000	0.000000	0.000000	0.000000	0.000000	0.000000
3.840000	-0.023447	-0.280916	0.115119	0.086681	0.062844	0.118727	-0.060118	-0.033300	0.038779	0.109434	0.093961	0.027437	0.146525	0.146525	1.784700	1.308258	0.000000	0.000000	0.000000	0.000000	0.000000	0.000000	0.000000	0.000000	0.000000	0.000000	0.000000	0.000000	0.000000	0.000000	0.000000	0.000000	0.000000	0.000000	0.000000	0.000000	0.000000	0.000000
